<?xml version="1.0" standalone="no"?>
<!DOCTYPE svg PUBLIC "-//W3C//DTD SVG 20010904//EN"
 "http://www.w3.org/TR/2001/REC-SVG-20010904/DTD/svg10.dtd">
<svg version="1.0" xmlns="http://www.w3.org/2000/svg"
 width="500.000000pt" height="500.000000pt" viewBox="0 0 500.000000 500.000000"
 preserveAspectRatio="xMidYMid meet">
<metadata>
Created by potrace 1.14, written by Peter Selinger 2001-2017
</metadata>
<g transform="translate(0.000000,500.000000) scale(0.100000,-0.100000)"
fill="#000000" stroke="none">
<path d="M4260 4353 c-44 -50 -116 -204 -133 -284 -17 -81 -36 -118 -82 -158
-60 -52 -82 -33 -84 74 -1 43 8 68 60 171 66 130 79 187 47 207 -14 10 -24 5
-54 -23 -44 -42 -134 -221 -141 -283 -11 -81 -69 -158 -108 -143 -19 7 -21
102 -3 141 15 34 -1 53 -34 38 -25 -11 -58 -103 -58 -161 0 -43 30 -72 76 -72
29 0 44 8 74 38 l38 38 5 -26 c3 -14 15 -38 27 -53 18 -23 29 -27 69 -27 41 0
51 5 83 38 20 20 44 53 54 72 l18 35 6 -30 c15 -69 44 -95 106 -95 31 0 44 7
77 43 22 23 53 70 68 104 38 81 37 93 -1 23 -31 -56 -93 -120 -117 -120 -20 0
-33 43 -33 107 0 49 8 72 60 176 50 99 60 128 58 161 -4 57 -33 60 -78 9z m54
-30 c-9 -40 -93 -217 -100 -211 -6 7 20 111 42 164 28 67 71 101 58 47z m-257
-21 c-9 -43 -88 -212 -97 -207 -9 6 12 93 36 150 33 79 73 116 61 57z"/>
<path d="M3730 4171 c-13 -26 -13 -31 4 -31 19 0 48 29 41 41 -10 15 -34 10
-45 -10z"/>
<path d="M3586 4108 c-7 -57 -17 -96 -44 -168 -15 -42 -16 -43 -23 -20 -4 14
-7 49 -8 78 -1 74 -22 68 -66 -23 -59 -122 -73 -93 -29 59 25 86 26 90 8 103
-10 7 -30 13 -45 13 -24 0 -30 -7 -47 -52 -42 -113 -50 -219 -20 -255 28 -34
100 -6 135 53 11 19 12 18 28 -3 11 -16 26 -23 51 -23 44 0 67 36 90 139 13
59 14 81 5 112 -7 21 -16 39 -20 39 -5 0 -11 -24 -15 -52z"/>
<path d="M906 4104 c-105 -22 -152 -37 -224 -71 -30 -14 -31 -17 -15 -29 10
-7 32 -14 49 -14 56 0 61 -19 31 -123 -47 -166 -60 -286 -34 -321 31 -42 79
23 97 133 13 79 34 155 72 260 22 62 26 66 83 95 53 27 60 35 63 64 2 17 0 32
-5 31 -4 0 -57 -11 -117 -25z"/>
<path d="M3005 4073 c-9 -58 -32 -155 -45 -188 -9 -23 -13 -26 -20 -15 -6 8
-10 31 -10 50 0 44 -10 80 -21 80 -5 0 -24 -31 -44 -69 -44 -88 -60 -100 -52
-40 3 24 15 74 26 111 18 61 18 70 5 83 -21 21 -71 19 -83 -2 -5 -10 -19 -54
-31 -98 -12 -44 -27 -83 -34 -87 -6 -4 -30 -8 -52 -8 -41 0 -41 1 -47 40 -10
77 -62 124 -112 102 -21 -10 -25 -19 -25 -51 0 -22 4 -43 10 -46 6 -4 2 -21
-10 -45 -26 -51 -26 -110 0 -138 24 -25 33 -27 63 -10 27 14 48 42 63 82 9 26
18 31 66 41 l56 11 6 -34 c7 -43 22 -62 52 -62 38 0 71 20 90 55 l18 33 19
-24 c13 -17 28 -24 52 -24 44 0 58 22 85 126 18 67 19 85 9 122 -14 52 -26 54
-34 5z m-445 -83 c13 -25 13 -87 -1 -96 -14 -9 -66 42 -74 73 -8 34 20 66 46
52 10 -5 23 -18 29 -29z m-13 -172 c-15 -36 -37 -49 -37 -21 0 24 29 65 41 58
5 -4 3 -19 -4 -37z"/>
<path d="M2206 3979 c-18 -60 -21 -210 -6 -240 14 -26 46 -24 62 4 7 12 30 69
50 127 31 88 37 99 37 68 1 -34 21 -68 41 -68 16 0 40 12 40 21 0 4 -7 6 -15
3 -11 -5 -15 1 -15 19 0 47 -18 79 -42 75 -18 -2 -28 -18 -49 -71 -24 -63 -49
-104 -49 -81 0 6 10 38 21 73 21 63 21 63 2 89 -11 15 -29 28 -41 30 -17 3
-23 -5 -36 -49z"/>
<path d="M1939 3973 c-6 -16 -14 -55 -17 -88 l-7 -60 -45 -6 c-55 -8 -60 -5
-60 32 0 55 -50 119 -93 119 -36 0 -59 -60 -37 -99 16 -31 -52 -141 -88 -141
-12 0 -14 11 -9 55 5 47 3 57 -13 65 -16 8 -26 3 -59 -32 -23 -23 -43 -40 -45
-37 -3 3 0 24 6 47 9 35 8 46 -6 68 -28 41 -54 28 -115 -59 -30 -42 -56 -76
-57 -74 -2 2 2 28 8 59 13 63 0 111 -35 129 -25 14 -29 8 -63 -103 -28 -91
-35 -98 -95 -98 -23 0 -27 5 -33 41 -9 55 -21 76 -58 99 -54 32 -99 -11 -78
-75 9 -27 8 -40 -4 -64 -18 -34 -21 -103 -6 -132 7 -13 21 -19 44 -19 39 0 80
40 91 89 5 24 12 30 43 35 64 10 74 8 67 -14 -3 -10 -1 -29 5 -40 18 -34 69
-23 98 20 13 19 31 44 40 56 9 11 26 36 36 55 26 47 67 101 72 96 3 -3 -4 -20
-15 -40 -29 -52 -52 -127 -46 -148 12 -38 49 -22 119 54 l68 72 -7 -48 c-6
-38 -4 -52 10 -67 23 -26 43 -25 71 1 l22 21 7 -32 c9 -40 44 -58 80 -42 27
13 65 67 65 94 0 18 12 23 78 33 41 7 42 6 42 -22 0 -62 26 -94 60 -73 7 4 32
64 56 131 35 102 43 117 43 87 1 -49 32 -83 61 -68 22 12 27 22 7 14 -9 -3
-16 11 -23 48 -7 43 -13 53 -29 53 -21 0 -38 -27 -75 -119 -30 -72 -37 -47 -9
34 l23 69 -24 26 c-31 33 -58 32 -71 -2z m-179 -38 c6 -8 16 -31 20 -51 16
-68 -11 -85 -54 -33 -24 29 -34 77 -19 92 11 12 40 8 53 -8z m-740 -63 c30
-24 40 -99 15 -108 -13 -5 -26 2 -47 24 -30 34 -36 70 -16 90 16 16 22 15 48
-6z m750 -97 c0 -14 -32 -65 -40 -65 -13 0 -13 13 2 45 10 21 38 36 38 20z
m-740 -74 c0 -10 -9 -29 -20 -42 l-19 -24 -1 23 c0 28 17 62 30 62 6 0 10 -9
10 -19z"/>
<path d="M3023 3095 c-12 -8 -27 -32 -34 -53 -6 -20 -16 -43 -22 -49 -12 -16
-31 -17 -21 -2 5 9 -6 10 -40 5 l-46 -7 0 35 c0 47 -9 66 -30 66 -24 0 -52
-37 -69 -88 -11 -32 -20 -41 -43 -46 -29 -6 -30 -26 -1 -26 11 0 14 -6 9 -22
-3 -13 -11 -52 -17 -87 -13 -73 -49 -121 -111 -146 -33 -13 -38 -13 -61 5 -32
25 -42 65 -23 91 l14 21 7 -21 c4 -13 15 -21 30 -21 18 0 27 9 40 44 24 63 3
98 -66 111 -35 6 -38 5 -66 -37 -17 -24 -33 -64 -37 -90 -6 -38 -13 -50 -39
-67 l-32 -20 -6 29 c-8 38 -26 60 -49 60 -17 0 -32 -15 -68 -66 -24 -36 -5 82
23 139 40 80 89 148 103 142 7 -2 12 4 12 14 0 21 -53 71 -74 71 -35 0 -126
-199 -146 -318 -10 -63 -10 -76 4 -97 9 -14 23 -25 32 -25 25 0 54 19 54 36 0
27 40 94 57 94 13 0 15 -8 11 -44 -4 -34 -17 -57 -57 -105 -58 -70 -63 -92
-25 -110 25 -11 30 -9 69 33 24 24 46 58 49 74 4 16 23 44 42 63 29 28 37 31
44 19 23 -40 40 -53 80 -60 52 -10 99 5 139 43 l29 27 7 -37 c10 -52 21 -70
55 -88 43 -22 88 -1 131 61 20 30 34 43 37 33 9 -35 28 -62 54 -75 42 -22 88
1 132 68 20 29 36 58 36 65 0 18 5 16 36 -12 21 -20 38 -25 76 -25 58 0 80 10
129 57 l36 34 7 -39 c5 -36 20 -52 47 -52 13 0 35 48 71 156 31 96 32 98 38
62 11 -61 43 -86 70 -53 11 13 10 14 -2 10 -11 -4 -17 7 -24 47 -7 43 -13 53
-29 53 -21 0 -35 -23 -75 -119 -29 -71 -35 -49 -9 33 l23 71 -24 25 c-35 37
-60 29 -76 -25 -8 -25 -14 -60 -14 -79 0 -68 -87 -156 -147 -149 -37 4 -70 66
-53 98 l11 21 19 -23 c24 -30 48 -17 67 36 17 50 0 84 -50 101 -30 10 -40 10
-56 -1 -34 -24 -59 -77 -65 -138 -4 -32 -12 -68 -18 -80 -33 -63 -83 -103
-105 -84 -23 18 -15 126 16 223 l28 90 43 12 c66 19 76 37 18 29 l-48 -7 0 38
c0 35 -13 63 -30 63 -3 0 -15 -7 -27 -15z m22 -83 c-3 -10 -9 -12 -15 -6 -6 6
-5 24 2 49 l12 40 4 -33 c2 -19 1 -41 -3 -50z m-220 -20 c-3 -10 -9 -12 -15
-6 -6 6 -5 24 2 49 l12 40 4 -33 c2 -19 1 -41 -3 -50z m98 -34 c21 -10 26 -18
23 -33 -3 -11 -13 -60 -22 -110 -17 -96 -41 -143 -86 -169 -25 -16 -28 -15
-38 3 -16 32 -12 122 11 192 39 120 38 119 80 128 3 0 17 -5 32 -11z m100 -46
c-21 -61 -27 -67 -19 -17 10 59 16 76 26 70 5 -3 2 -27 -7 -53z m-209 16 c-4
-13 -13 -39 -21 -58 l-13 -35 5 40 c8 56 15 75 26 75 6 0 7 -9 3 -22z m476
-26 c0 -29 -26 -59 -40 -46 -9 9 -8 18 5 38 20 30 35 34 35 8z m-724 -100
c-12 -13 -19 -13 -28 -4 -9 9 -6 18 13 38 24 26 24 26 27 4 2 -13 -3 -30 -12
-38z m-290 -210 c-15 -29 -46 -61 -46 -47 0 10 49 75 56 75 2 0 -2 -13 -10
-28z"/>
<path d="M1526 2979 c-87 -131 -143 -351 -100 -393 32 -32 60 -15 90 53 14 30
30 59 37 63 9 6 9 8 -1 8 -11 0 -45 -46 -56 -75 -2 -5 -7 -7 -11 -3 -12 11 15
114 46 177 16 33 48 78 70 101 l40 41 -36 35 c-20 19 -40 34 -44 34 -5 0 -21
-18 -35 -41z"/>
<path d="M1748 2823 c-33 -36 -44 -59 -53 -110 -5 -31 -15 -48 -41 -68 -24
-18 -35 -22 -38 -13 -14 53 -23 72 -34 76 -9 3 -12 -4 -11 -19 4 -50 -2 -69
-44 -121 -65 -79 -74 -98 -51 -115 43 -31 80 -6 127 86 34 69 86 118 95 92 13
-37 51 -61 97 -61 82 0 141 40 177 121 15 34 12 32 -46 -27 -50 -52 -68 -64
-93 -64 -51 0 -89 61 -63 100 9 13 12 13 24 -2 20 -26 44 -22 61 12 31 60 16
101 -48 128 -35 15 -29 17 -59 -15z m92 -51 c0 -10 -6 -27 -14 -38 -11 -15
-17 -16 -27 -7 -9 9 -8 17 5 37 19 30 36 34 36 8z m-320 -261 c-12 -17 -26
-31 -31 -31 -6 0 2 16 17 35 32 43 45 39 14 -4z"/>
<path d="M3704 2765 c-7 -29 10 -55 36 -55 12 0 21 10 25 30 8 37 0 50 -30 50
-18 0 -26 -7 -31 -25z"/>
<path d="M4385 2420 c-46 -63 -101 -190 -110 -255 -9 -62 -24 -91 -68 -133
-41 -40 -67 -39 -79 3 -16 55 -1 119 53 226 60 118 71 182 33 187 -45 6 -148
-164 -175 -288 -14 -65 -42 -113 -73 -128 -47 -21 -56 23 -30 141 6 26 4 28
-17 25 -29 -4 -58 -59 -66 -128 -5 -40 -2 -51 16 -69 34 -34 77 -28 121 17
l38 38 6 -30 c10 -49 43 -76 92 -76 35 0 47 5 73 35 17 19 38 50 48 68 l17 32
7 -33 c10 -51 45 -82 91 -82 32 0 45 7 74 38 35 37 67 90 84 140 8 23 8 24 -3
8 -54 -83 -76 -111 -99 -124 -38 -23 -51 -7 -56 71 -4 58 -1 68 41 147 80 152
93 220 42 220 -16 0 -34 -15 -60 -50z m61 -12 c-8 -42 -76 -188 -88 -188 -11
0 -11 -1 17 88 32 101 87 178 71 100z m-239 -28 c-10 -47 -81 -197 -85 -177
-5 23 34 152 55 183 21 33 37 30 30 -6z"/>
<path d="M2255 2273 c-38 -57 -81 -177 -105 -294 -16 -79 -28 -112 -49 -139
-77 -96 -107 -3 -55 171 l27 87 43 11 c55 14 57 28 5 23 -39 -4 -39 -4 -39 33
0 78 -42 72 -81 -13 -20 -41 -31 -53 -55 -58 -30 -7 -30 -7 -8 -17 26 -12 27
-18 6 -108 -13 -59 -23 -77 -66 -124 -67 -73 -80 -73 -63 3 8 31 21 79 29 106
20 66 6 96 -21 46 -21 -42 -140 -166 -149 -157 -4 3 8 40 26 81 22 50 31 82
26 99 -6 26 -50 62 -65 53 -12 -8 -40 -114 -43 -162 -3 -72 58 -134 104 -105
11 7 22 11 24 8 2 -2 -6 -30 -19 -63 -21 -57 -25 -60 -93 -95 -38 -19 -80 -38
-93 -42 -23 -6 -23 -7 -9 -29 23 -35 58 -49 106 -45 56 6 103 49 133 123 15
38 31 60 56 75 19 12 49 44 65 71 l31 50 16 -48 c22 -66 55 -85 105 -61 20 9
47 35 62 59 l28 43 9 -35 c10 -42 33 -68 46 -55 5 6 19 39 31 75 12 36 40 93
62 128 72 110 107 103 68 -13 -28 -84 -22 -115 22 -115 23 0 40 10 68 40 42
45 50 49 50 20 0 -46 86 -55 131 -14 17 15 18 15 16 -12 -2 -27 0 -29 37 -29
41 0 41 0 70 68 17 40 76 126 87 127 4 0 9 -23 11 -51 7 -64 26 -84 80 -83 32
1 47 8 64 27 l22 26 6 -29 c8 -41 48 -51 81 -20 l24 23 -10 -36 c-5 -20 -25
-59 -43 -86 -82 -121 -69 -204 24 -156 49 25 67 59 75 138 l7 72 68 65 c70 67
90 96 90 127 0 10 -9 -1 -21 -24 -18 -37 -99 -113 -121 -113 -15 0 -8 51 13
101 40 93 -1 71 -72 -37 -39 -60 -59 -78 -59 -54 0 16 49 111 77 148 13 17 33
32 44 32 27 0 24 15 -10 39 -57 41 -96 18 -141 -83 -32 -70 -91 -136 -122
-136 -19 0 -20 4 -16 64 10 114 -31 130 -101 40 -24 -30 -45 -53 -48 -51 -2 3
1 22 7 44 16 52 9 103 -15 119 -19 13 -22 8 -64 -98 -45 -111 -72 -151 -101
-146 -19 4 -26 87 -10 131 7 21 7 34 0 41 -18 18 -43 -7 -66 -64 -35 -88 -148
-177 -130 -102 4 15 10 55 13 90 l5 62 -30 0 c-22 0 -39 -11 -68 -43 -22 -24
-44 -52 -51 -63 -24 -38 -14 14 17 94 37 94 79 156 108 160 27 4 27 6 1 48
-39 65 -77 70 -114 17z m-199 -139 c-7 -18 -26 -18 -26 0 0 8 5 27 12 43 l12
28 4 -28 c2 -16 1 -35 -2 -43z m-30 -115 l-15 -34 5 40 c8 56 16 76 21 49 2
-12 -3 -37 -11 -55z m1056 -288 c-7 -44 -25 -64 -35 -39 -2 8 5 38 16 68 24
60 33 46 19 -29z m-1401 -109 c-18 -34 -49 -54 -78 -50 -44 5 -34 29 22 48 66
23 67 23 56 2z"/>
<path d="M3910 2270 c-6 -12 -9 -25 -5 -28 9 -9 40 13 40 28 0 23 -23 22 -35
0z"/>
<path d="M3778 2253 c-2 -4 -6 -26 -7 -47 -3 -43 -38 -166 -51 -180 -5 -4 -11
22 -15 58 -4 36 -11 69 -16 72 -5 2 -24 -27 -44 -66 -58 -116 -70 -88 -26 62
17 61 18 70 5 83 -19 18 -58 20 -72 3 -15 -19 -52 -160 -52 -199 0 -43 20 -83
44 -87 30 -6 71 17 91 50 l18 32 15 -22 c20 -31 76 -30 96 1 26 39 49 138 43
184 -5 43 -20 73 -29 56z"/>
<path d="M2551 2157 c-16 -16 -14 -37 4 -37 21 0 39 36 21 43 -7 3 -19 0 -25
-6z"/>
<path d="M701 2095 c-100 -24 -144 -103 -90 -161 l24 -26 -41 -37 c-52 -45
-64 -68 -64 -121 0 -33 6 -48 31 -72 29 -29 33 -30 91 -24 96 10 188 60 161
87 -8 8 -17 8 -31 0 -50 -27 -185 -42 -203 -24 -25 25 31 102 122 169 27 20
49 40 49 45 0 5 -27 9 -61 9 -38 0 -58 4 -54 10 13 20 71 43 125 49 52 6 55 7
58 36 6 60 -33 80 -117 60z"/>
<path d="M1395 2018 c-13 -41 -25 -97 -25 -120 0 -57 -107 -141 -150 -118 -27
14 -43 57 -35 89 l7 26 18 -25 c16 -20 22 -23 37 -14 24 15 39 69 27 101 -6
16 -22 29 -46 38 -37 12 -39 12 -68 -21 -29 -33 -36 -52 -42 -104 -5 -42 -36
-37 -56 9 -18 43 -52 57 -52 22 0 -20 -14 -54 -43 -109 -25 -45 -41 -25 -44
53 -1 33 -4 67 -5 76 -4 20 -27 49 -38 49 -8 0 -30 -145 -30 -196 0 -37 36
-74 72 -74 26 0 34 11 80 116 l22 52 31 -24 c18 -13 39 -24 48 -24 10 0 17 -4
17 -9 0 -4 11 -20 25 -35 45 -49 151 -30 201 37 l19 25 10 -42 c7 -31 15 -42
32 -44 27 -4 35 11 79 137 21 63 33 86 33 68 2 -60 43 -88 72 -49 11 15 11 15
-1 4 -13 -11 -16 -6 -25 35 -8 37 -15 49 -31 51 -21 3 -27 -6 -69 -112 -21
-54 -31 -38 -11 20 9 26 16 57 16 69 0 39 -64 75 -75 43z m-146 -98 c-10 -28
-39 -43 -39 -19 0 20 21 49 35 49 11 0 12 -6 4 -30z"/>
<path d="M2501 1169 c-17 -17 -32 -36 -33 -42 -3 -25 -6 -33 -26 -78 -43 -97
-75 -245 -74 -339 1 -77 15 -110 46 -110 22 0 28 8 46 68 14 45 21 93 21 145
l0 78 42 -6 c23 -4 54 -2 70 4 22 9 27 8 27 -5 0 -23 46 -64 73 -64 13 0 36 9
50 20 l26 20 3 -27 c6 -50 82 -44 93 7 7 32 94 170 107 170 4 0 8 -18 8 -41 0
-41 14 -78 34 -91 29 -20 78 -8 113 27 l34 34 21 -24 c58 -67 192 -25 234 74
20 48 18 48 -18 3 -40 -48 -87 -82 -115 -82 -38 0 -75 68 -53 100 8 13 11 12
23 -4 20 -28 48 -16 63 27 17 49 6 73 -43 93 -34 14 -37 14 -60 -8 -34 -31
-53 -71 -53 -109 0 -24 -10 -42 -45 -76 -24 -25 -50 -43 -57 -41 -9 3 -14 30
-16 81 l-3 77 -29 0 c-24 0 -38 -10 -71 -52 -23 -29 -45 -54 -50 -56 -11 -5
-11 -5 6 43 21 60 19 101 -7 119 -12 9 -23 14 -25 12 -2 -1 -23 -52 -48 -112
-45 -108 -63 -134 -96 -134 -23 0 -31 60 -15 115 11 36 11 46 1 55 -19 15 -49
-16 -69 -73 -19 -51 -39 -67 -83 -67 -55 0 -59 10 -35 97 11 43 26 97 32 121
6 23 15 42 20 42 14 0 12 -41 -5 -89 -19 -55 0 -54 25 2 24 51 25 76 4 105
-21 31 -57 28 -93 -9z m799 -83 c0 -20 -22 -56 -35 -56 -20 0 -19 19 2 42 15
17 33 24 33 14z m-845 -313 c-9 -105 -15 -137 -25 -127 -12 12 12 194 25 194
3 0 3 -30 0 -67z"/>
<path d="M1801 1135 c-72 -119 -115 -305 -78 -342 28 -28 60 -10 82 49 13 34
27 54 39 56 34 7 15 -70 -32 -125 -62 -76 -67 -89 -38 -108 19 -13 29 -14 45
-5 24 12 71 78 71 99 0 9 17 32 37 53 l37 37 22 -33 c56 -82 193 -38 243 78 9
23 1 17 -41 -27 -66 -70 -102 -81 -135 -43 -25 29 -29 52 -13 76 9 13 12 13
21 -2 24 -43 69 -3 69 61 0 33 -25 59 -67 67 -28 6 -34 2 -62 -36 -21 -30 -31
-55 -31 -80 0 -29 -6 -41 -30 -59 -34 -25 -50 -21 -50 13 0 57 -50 60 -86 6
-15 -22 -29 -39 -31 -37 -1 2 1 27 7 55 12 63 58 157 99 201 17 18 31 37 31
43 0 14 -47 58 -62 58 -8 0 -29 -25 -47 -55z m299 -169 c0 -25 -12 -46 -26
-46 -17 0 -18 14 -4 41 12 22 30 25 30 5z m-290 -245 c-12 -17 -26 -31 -32
-31 -10 0 -4 11 31 53 24 28 25 11 1 -22z"/>
<path d="M2680 1109 c-7 -11 -9 -24 -5 -27 9 -9 40 13 43 32 5 23 -25 20 -38
-5z"/>
<path d="M3431 928 c-11 -29 4 -60 27 -56 16 3 41 53 31 62 -2 2 -14 7 -27 10
-17 6 -24 3 -31 -16z"/>
</g>
</svg>
